<?xml version="1.0" encoding="UTF-8" standalone="no"?>
<!-- Created with Inkscape (http://www.inkscape.org/) -->

<svg
   width="500"
   height="500"
   viewBox="0 0 132.29167 132.29167"
   version="1.1"
   id="svg1"
   xml:space="preserve"
   inkscape:version="1.4.2 (f4327f4, 2025-05-13)"
   sodipodi:docname="Logo.svg"
   xmlns:inkscape="http://www.inkscape.org/namespaces/inkscape"
   xmlns:sodipodi="http://sodipodi.sourceforge.net/DTD/sodipodi-0.dtd"
   xmlns="http://www.w3.org/2000/svg"
   xmlns:svg="http://www.w3.org/2000/svg"><sodipodi:namedview
     id="namedview1"
     pagecolor="#505050"
     bordercolor="#eeeeee"
     borderopacity="1"
     inkscape:showpageshadow="0"
     inkscape:pageopacity="0"
     inkscape:pagecheckerboard="0"
     inkscape:deskcolor="#505050"
     inkscape:document-units="mm"
     inkscape:zoom="1.3772587"
     inkscape:cx="290.432"
     inkscape:cy="274.0952"
     inkscape:window-width="1920"
     inkscape:window-height="991"
     inkscape:window-x="-9"
     inkscape:window-y="-9"
     inkscape:window-maximized="1"
     inkscape:current-layer="layer1" /><defs
     id="defs1"><filter
       inkscape:menu="Fill and Transparency"
       inkscape:menu-tooltip="Create a semi transparent posterized image"
       style="color-interpolation-filters:sRGB"
       inkscape:label="Posterized Light Eraser"
       id="filter3"
       x="-0.00052031741"
       y="-0.00052031741"
       width="1.0010406"
       height="1.0010406"><feGaussianBlur
         stdDeviation="0.01"
         result="result1"
         in="SourceGraphic"
         id="feGaussianBlur1" /><feColorMatrix
         values="1 0 0 0 0 0 1 0 0 0 0 0 1 0 0 0 0 0 50 0 "
         result="fbSourceGraphic"
         in="result1"
         id="feColorMatrix1" /><feColorMatrix
         type="saturate"
         result="result8"
         values="1"
         id="feColorMatrix2" /><feComponentTransfer
         in="result8"
         result="result7"
         id="feComponentTransfer2"><feFuncR
           tableValues="0 0.2 0.4 0.6 0.8 1 1"
           type="discrete"
           id="feFuncR2" /><feFuncG
           tableValues="0 0.2 0.4 0.6 0.8 1 1"
           type="discrete"
           id="feFuncG2" /><feFuncB
           tableValues="0 0.2 0.4 0.6 0.8 1 1"
           type="discrete"
           id="feFuncB2" /></feComponentTransfer><feColorMatrix
         values="1 0 0 0 0 0 1 0 0 0 0 0 1 0 0 -0.21 -0.72 -0.07 1 0 "
         result="result2"
         in="result7"
         id="feColorMatrix3" /><feComposite
         in2="SourceGraphic"
         operator="in"
         result="result9"
         in="result2"
         id="feComposite3" /></filter></defs><g
     inkscape:label="Capa 1"
     inkscape:groupmode="layer"
     id="layer1"><path
       style="fill:#8cf800;stroke-width:1.86658;fill-opacity:1"
       d="M 61.61569,129.18322 C 48.315095,128.21174 34.991915,123.03187 25.005178,114.94955 11.964125,104.39535 3.9162271,90.18505 1.7763203,73.933975 1.3252539,70.508431 1.2764952,62.467986 1.6862572,59.083211 3.3514943,45.328069 9.1773385,33.040443 18.774919,23.040561 29.198066,12.180501 43.109435,5.3574285 58.573219,3.5207806 63.250066,2.9653121 72.725952,3.218726 76.999026,4.0135547 c 13.696576,2.547655 24.836714,8.1810933 34.347104,17.3689183 5.20833,5.031669 9.32903,10.567046 12.44035,16.71123 6.73963,13.309357 8.48373,28.521584 4.92885,42.99024 -2.78514,11.33581 -9.12623,22.136417 -17.76637,30.260977 -9.89485,9.30444 -21.957707,15.17125 -35.320674,17.17834 -3.334303,0.5008 -11.151147,0.86896 -14.012604,0.65996 z m 9.409711,-4.34833 c 24.027688,-2.15778 44.704209,-18.02973 52.260689,-40.116935 3.46925,-10.140401 3.86155,-22.833043 1.03112,-33.360156 C 122.63818,45.11301 118.81141,37.045015 115.2768,32.297838 106.33726,20.29153 94.404499,12.41212 79.81481,8.8816459 71.150656,6.785068 60.180661,6.8533506 51.15708,9.0600566 25.797413,15.261699 7.2628279,37.081236 5.6930757,62.581828 4.6469583,79.575991 10.6852,95.251064 22.949879,107.37993 c 8.762582,8.66555 19.309875,14.22343 31.394572,16.5433 6.140625,1.17882 10.843954,1.43587 16.68095,0.91168 z M 59.270235,113.5378 c 1.954024,-4.92219 4.465397,-11.58759 4.463843,-11.84741 -0.0011,-0.18379 -1.190811,-0.29494 -3.045481,-0.28434 -1.674024,0.009 -3.044166,-0.0644 -3.044765,-0.1643 -5.96e-4,-0.0999 0.830867,-2.782301 1.847698,-5.960814 l 1.848785,-5.77912 4.055281,-0.02321 4.055279,-0.02321 -1.154631,2.312323 c -1.820799,3.646451 -2.407182,4.982304 -2.277606,5.18873 0.06617,0.10545 1.490215,0.112319 3.164534,0.01485 2.401228,-0.139238 3.04471,-0.09357 3.046564,0.216358 0.0021,0.343529 -13.218629,17.913133 -13.480308,17.914633 -0.05536,3.2e-4 0.179,-0.7039 0.520807,-1.56493 z M 42.06952,104.97024 c -1.838723,-0.65127 -2.561329,-1.2437 -3.293426,-2.70012 -0.513388,-1.02134 -0.652204,-1.70727 -0.544675,-2.691417 0.170255,-1.558167 2.028192,-5.523567 4.007099,-8.552337 l 1.407612,-2.15439 0.824949,0.95447 c 0.453722,0.524966 1.418475,1.954815 2.143897,3.177459 2.85693,4.815106 3.402817,7.265025 2.119205,9.510905 -1.20688,2.11164 -4.357784,3.2725 -6.664661,2.45543 z m 0.442492,-3.55231 c -0.6832,-0.71602 -1.33717,-1.588567 -1.453267,-1.938977 -0.277813,-0.838524 -0.713379,-0.804794 -1.122636,0.0869 -0.475327,1.035707 0.492821,2.836817 1.88443,3.505717 0.924385,0.44434 1.118219,0.45459 1.497728,0.0793 0.379508,-0.37531 0.275165,-0.59957 -0.806255,-1.73296 z m 43.8022,3.41121 c -3.500189,-0.78666 -4.88489,-4.1465 -3.304208,-8.017324 0.862213,-2.111412 3.791114,-7.140741 4.49501,-7.718581 0.365188,-0.299789 0.687606,-0.0012 1.90176,1.761571 1.902793,2.76249 3.38723,5.626049 3.831746,7.39163 0.717615,2.850294 -0.849922,5.568344 -3.698443,6.412924 -1.694047,0.50228 -1.736479,0.50453 -3.225865,0.16987 z m 1.108658,-2.31461 c 0.05649,-0.39031 -0.142817,-0.74696 -0.528762,-0.94606 -0.340776,-0.17581 -0.993269,-0.93457 -1.449986,-1.686197 -0.765251,-1.259414 -0.8619,-1.323984 -1.231986,-0.823167 -0.520454,0.704317 -0.503431,1.164264 0.08747,2.363264 0.46038,0.93416 2.078754,2.0082 2.728628,1.81089 0.167026,-0.0507 0.344694,-0.37416 0.394652,-0.71873 z M 61.533674,86.202107 c -1.987239,-0.369316 -4.216732,-1.1122 -6.190199,-2.06266 l -1.746525,-0.841149 -12.280329,0.07018 c -13.078056,0.07482 -13.795555,0.013 -16.780546,-1.45209 -1.602645,-0.786419 -3.967868,-2.966058 -4.921274,-4.535126 -1.172429,-1.929529 -1.805654,-4.659735 -1.657351,-7.145828 0.227579,-3.815041 2.558106,-7.58456 5.815265,-9.405947 1.537708,-0.859881 1.538548,-0.861199 1.894922,-2.966354 0.571845,-3.377962 2.358182,-6.229844 5.050592,-8.063243 l 1.340923,-0.913107 -0.995289,-1.693455 c -0.920745,-1.566636 -0.998484,-1.905134 -1.037949,-4.519587 -0.03487,-2.310225 -0.219489,-3.348647 -1.011339,-5.68854 -0.532774,-1.574341 -1.065956,-3.739833 -1.184847,-4.812247 -0.213198,-1.92305 -0.205253,-1.95255 0.578609,-2.149619 0.983546,-0.247269 3.350246,0.273631 6.080694,1.33836 l 2.074837,0.809068 2.317055,-1.062519 c 1.274379,-0.584375 3.326751,-1.239835 4.560824,-1.456583 1.234073,-0.216729 2.294339,-0.444078 2.356147,-0.505213 0.0618,-0.06108 0.731324,-1.337505 1.487817,-2.836417 1.719181,-3.406384 2.897362,-4.748884 3.771793,-4.297882 0.897544,0.46294 2.36081,2.647387 3.906548,5.831882 0.748514,1.542075 1.587507,2.887285 1.86443,2.989338 0.285704,0.105264 0.972104,-0.102851 1.586836,-0.481301 9.731659,-5.990391 21.95909,-6.826527 30.447361,-2.082042 2.748268,1.536134 7.24739,5.90772 8.726928,8.479565 1.57405,2.73611 2.859083,6.390154 3.126133,8.889187 l 0.21874,2.047102 1.86476,0.811648 c 7.89363,3.435718 12.38965,11.577064 10.83407,19.618251 -1.08466,5.606891 -4.67183,10.384811 -9.60902,12.798686 -3.91177,1.912542 -5.400355,2.115422 -16.008737,2.181978 l -9.240725,0.05792 -2.166796,1.053905 c -3.305145,1.607573 -6.357692,2.273411 -10.350398,2.257668 -1.856604,-0.0074 -3.982387,-0.126057 -4.72396,-0.263885 z m 11.490939,-3.757006 c 2.822223,-0.960523 5.83985,-2.801292 8.806228,-5.371856 1.072322,-0.92924 2.064122,-1.578964 2.204002,-1.443829 0.289058,0.279257 -0.403443,2.430639 -1.098535,3.412809 -0.254292,0.359309 -0.461638,0.771789 -0.460773,0.916634 8.93e-4,0.149264 3.460378,0.188381 7.990471,0.09023 7.291848,-0.157989 8.158136,-0.23212 9.928774,-0.84941 6.98694,-2.435782 11.32928,-9.261436 10.28555,-16.167681 -0.52906,-3.500622 -1.53957,-5.555929 -3.9947,-8.124823 -1.3711,-1.434657 -4.66226,-3.719486 -5.35201,-3.715531 -0.19559,0.0011 -0.50442,0.810293 -0.68627,1.798162 -0.60108,3.265346 -2.231748,6.09222 -5.188517,8.994636 -2.266855,2.225179 -3.088308,2.807715 -5.794669,4.109261 -2.056044,0.988815 -4.041578,1.694457 -5.705748,2.027776 -3.229306,0.646808 -6.814251,0.515219 -8.2855,-0.304134 -1.366655,-0.761096 -2.184528,-2.296636 -2.009076,-3.772007 0.271946,-2.286741 1.910545,-3.183585 5.872013,-3.213883 1.470129,-0.01114 3.597327,-0.217435 4.727108,-0.458206 3.627172,-0.772977 7.527418,-3.231594 9.06521,-5.714457 0.889821,-1.436699 0.743513,-1.638502 -0.842416,-1.162065 -2.603104,0.781981 -7.698756,1.183322 -10.596269,0.834539 -1.452827,-0.174886 -2.772244,-0.395904 -2.932036,-0.49118 -0.159783,-0.09524 -0.652964,-0.910861 -1.095936,-1.812439 -2.975053,-6.055071 -11.168159,-9.649521 -17.959319,-7.879039 -4.315679,1.12512 -8.630516,4.569545 -10.441639,8.335295 -0.51886,1.078838 -1.05691,2.031006 -1.195664,2.115923 -0.138764,0.08484 -0.822062,-0.498306 -1.51846,-1.29605 -3.379444,-3.871274 -9.759342,-4.297696 -14.343336,-0.958703 -2.408552,1.754405 -3.725253,4.314183 -3.769592,7.328398 l -0.03044,2.06912 -1.852256,0.869219 c -3.547009,1.664494 -5.502987,4.416681 -5.738842,8.074865 -0.242058,3.754425 1.732346,6.93179 5.383638,8.663787 l 2.040165,0.967744 10.584708,0.02822 c 5.821588,0.01485 10.584208,-0.05477 10.583602,-0.156318 -6.06e-4,-0.101552 -0.330661,-0.741974 -0.733452,-1.423333 -0.93499,-1.581637 -1.269206,-2.872693 -0.743844,-2.873454 0.212449,-2.97e-4 1.328796,0.726082 2.480775,1.614182 6.086789,4.692521 9.889395,6.093055 16.061032,5.915498 3.244866,-0.09338 4.179215,-0.237113 6.356019,-0.977973 z M 44.967817,46.478846 c 0.384346,-0.420017 0.786438,-0.535455 1.490506,-0.427907 1.136335,0.173584 2.632351,-0.807472 2.626877,-1.72264 -0.0043,-0.73594 -0.375229,-0.726304 -1.065159,0.02766 -0.651879,0.712399 -1.918575,0.79507 -2.179362,0.142208 -0.10198,-0.255289 -0.02537,-0.812929 0.170255,-1.239203 0.547119,-1.192141 -0.09125,-1.663955 -1.618489,-1.196244 -1.529649,0.468454 -1.724781,1.057228 -0.629849,1.900419 0.783752,0.603552 0.837567,0.751442 0.522929,1.436996 -0.367158,0.800027 -1.651912,1.08153 -2.056126,0.450539 -0.143512,-0.224044 -0.302783,-0.226977 -0.522564,-0.0093 -0.543539,0.537516 0.361385,1.226505 1.60161,1.219432 0.731412,-0.0037 1.319594,-0.210361 1.659365,-0.581682 z m 31.017287,-3.199792 c 0.105283,-0.66866 0.531256,-1.880833 0.94659,-2.693707 1.576972,-3.086452 3.94487,-4.858883 7.780368,-5.823861 2.639118,-0.663982 2.373414,-1.159206 -0.515792,-0.961395 -3.822398,0.261713 -6.871093,2.143437 -8.335481,5.144861 -0.682145,1.398121 -1.13381,4.259638 -0.803043,5.087661 0.328495,0.822323 0.730666,0.495521 0.927358,-0.753559 z M 36.358311,42.532346 c 0.535135,-0.385467 1.549731,-0.662255 2.886881,-0.787569 l 2.061757,-0.193226 -1.069336,-0.670702 c -1.540647,-0.966334 -3.180595,-0.711787 -4.485231,0.696136 -0.540686,0.583502 -0.981804,1.271581 -0.980265,1.529079 0.003,0.499978 0.189042,0.432679 1.586194,-0.573718 z M 50.416212,37.86034 c 0.66874,-0.149078 1.318486,-0.293459 1.443878,-0.320768 0.125402,-0.02729 0.381724,-0.0505 0.569624,-0.05161 0.238766,-0.0014 0.228766,-0.133297 -0.0332,-0.438192 -0.456751,-0.531594 -2.163002,-0.867474 -3.023312,-0.595161 -1.013166,0.320694 -2.454186,1.931571 -2.449361,2.738059 l 0.0043,0.734882 1.136045,-0.898051 c 0.624827,-0.493925 1.683197,-1.020042 2.351937,-1.169176 z"
       id="path3" /></g></svg>
