<svg width="160" height="160" viewBox="0 0 160 160" fill="none" xmlns="http://www.w3.org/2000/svg">
<path d="M79.9136 20.7571C100.881 20.7571 112.77 34.6314 114.497 51.3904H115.026C118.231 51.3852 121.405 52.0115 124.367 53.2334C127.33 54.4553 130.023 56.249 132.292 58.5119C134.561 60.7749 136.362 63.4627 137.592 66.4219C138.822 69.381 139.457 72.5536 139.46 75.7582C139.456 78.9617 138.82 82.1329 137.59 85.0909C136.361 88.0489 134.56 90.7356 132.292 92.9978C130.023 95.2599 127.332 97.0531 124.371 98.275C121.409 99.4969 118.236 100.124 115.033 100.119H111.182L111.162 100.146H109.416C109.276 100.534 109.092 100.905 108.866 101.251L102.25 111.175C101.513 112.254 100.381 112.999 99.0982 113.248C97.8156 113.498 96.4865 113.231 95.3993 112.506C94.3121 111.781 93.5547 110.657 93.2914 109.377C93.0281 108.097 93.2802 106.765 93.993 105.67L97.6915 100.119H85.5837L85.5705 100.146H82.9439C82.804 100.532 82.6197 100.9 82.3947 101.244L75.7784 111.168C75.4268 111.732 74.9658 112.218 74.4227 112.6C73.8795 112.982 73.2653 113.251 72.6163 113.391C71.9674 113.531 71.2969 113.54 70.6447 113.416C69.9924 113.292 69.3716 113.039 68.819 112.671C68.2664 112.303 67.7932 111.828 67.4276 111.274C67.0619 110.72 66.8111 110.098 66.6901 109.445C66.5691 108.792 66.5804 108.122 66.7231 107.473C66.8659 106.825 67.1373 106.212 67.5213 105.67L71.2264 100.119H59.9722L59.9655 100.146H56.4788C56.3373 100.534 56.1508 100.905 55.923 101.251L49.3067 111.175C48.5701 112.254 47.4375 112.999 46.1549 113.248C44.8722 113.498 43.5431 113.231 42.4559 112.506C41.3688 111.781 40.6113 110.657 40.348 109.377C40.0848 108.097 40.3369 106.765 41.0496 105.67L44.7548 100.119C38.2919 100.118 32.0938 97.5512 27.5214 92.9837C22.949 88.4163 20.376 82.221 20.3672 75.7582C20.3698 72.553 21.004 69.3798 22.2336 66.4198C23.4631 63.4599 25.264 60.7713 27.5331 58.5077C29.8023 56.244 32.4953 54.4498 35.4582 53.2274C38.4211 52.0051 41.5959 51.3786 44.8011 51.3838H45.3304C47.0638 34.5123 58.9466 20.7571 79.9136 20.7571ZM79.9136 30.6617C66.2113 30.6617 54.2623 41.466 54.2623 56.3923C54.2623 58.7544 52.1517 60.6135 49.7368 60.6135H45.1716C36.8285 60.6135 30.06 67.2364 30.06 75.4075C30.06 83.5786 36.8285 90.2213 45.1782 90.2213H114.649C122.992 90.2213 129.761 83.5918 129.761 75.4207C129.761 67.2496 122.992 60.6268 114.649 60.6268H110.084C107.669 60.6268 105.558 58.7742 105.558 56.4056C105.558 41.2874 93.6093 30.6683 79.907 30.6683M47.6659 125.513C47.2959 126.054 47.0371 126.664 46.9044 127.307C46.7718 127.95 46.7679 128.612 46.8931 129.257C47.0182 129.901 47.2699 130.514 47.6336 131.06C47.9972 131.606 48.4656 132.075 49.0117 132.439C49.5577 132.803 50.1705 133.055 50.8146 133.181C51.4587 133.306 52.1213 133.303 52.7641 133.171C53.4069 133.038 54.017 132.78 54.5593 132.41C55.1015 132.041 55.565 131.567 55.923 131.017L62.5393 121.093C62.9093 120.551 63.1681 119.941 63.3008 119.298C63.4334 118.655 63.4373 117.993 63.3121 117.349C63.187 116.704 62.9353 116.092 62.5716 115.545C62.2079 114.999 61.7395 114.53 61.1935 114.166C60.6475 113.802 60.0347 113.55 59.3906 113.425C58.7465 113.299 58.0839 113.302 57.4411 113.435C56.7983 113.567 56.1882 113.825 55.6459 114.195C55.1037 114.565 54.6402 115.038 54.2822 115.588L47.6659 125.513ZM75.5072 132.393C74.4123 131.663 73.6522 130.528 73.3941 129.238C73.136 127.948 73.4011 126.607 74.131 125.513L80.7473 115.588C81.1052 115.038 81.5688 114.565 82.111 114.195C82.6532 113.825 83.2634 113.567 83.9062 113.435C84.5489 113.302 85.2116 113.299 85.8557 113.425C86.4998 113.55 87.1126 113.802 87.6586 114.166C88.2046 114.53 88.673 114.999 89.0367 115.545C89.4003 116.092 89.652 116.704 89.7772 117.349C89.9023 117.993 89.8985 118.655 89.7658 119.298C89.6332 119.941 89.3743 120.551 89.0043 121.093L82.3881 131.017C81.6581 132.112 80.523 132.872 79.2326 133.13C77.9422 133.388 76.6021 133.123 75.5072 132.393Z" fill="#6B8E23"/>
</svg>
