<svg width="159" height="160" viewBox="0 0 159 160" fill="none" xmlns="http://www.w3.org/2000/svg">
<path d="M79.3952 27.2001C100.362 27.2001 112.252 41.0744 113.978 57.8334H114.508C117.712 57.8282 120.887 58.4545 123.849 59.6764C126.812 60.8983 129.504 62.692 131.773 64.9549C134.042 67.2178 135.843 69.9057 137.073 72.8649C138.303 75.824 138.938 78.9965 138.942 82.2012C138.937 85.4046 138.302 88.5759 137.072 91.5339C135.842 94.4919 134.042 97.1786 131.773 99.4408C129.505 101.703 126.813 103.496 123.852 104.718C120.891 105.94 117.718 106.567 114.514 106.562H110.664L100.197 123.996C99.5699 125.09 98.5502 125.904 97.3449 126.273C96.1396 126.642 94.839 126.539 93.7071 125.984C92.5753 125.429 91.697 124.464 91.2508 123.285C90.8046 122.106 90.8238 120.801 91.3045 119.636L91.6022 119.034L99.2043 106.562H85.072L74.6051 123.996C73.9781 125.09 72.9585 125.904 71.7532 126.273C70.5479 126.642 69.2472 126.539 68.1154 125.984C66.9835 125.429 66.1053 124.464 65.6591 123.285C65.2129 122.106 65.2321 120.801 65.7128 119.636L66.0105 119.034L73.606 106.562H59.4604L49.0067 123.996C48.3869 125.104 47.3663 125.932 46.1548 126.31C44.9432 126.688 43.6328 126.588 42.493 126.029C41.3533 125.471 40.4709 124.497 40.0272 123.308C39.5835 122.118 39.6124 120.805 40.1078 119.636L40.4056 119.034L48.001 106.562H44.2827C41.0786 106.567 37.905 105.941 34.9429 104.72C31.9808 103.498 29.2884 101.705 27.0194 99.4431C24.7504 97.1809 22.9493 94.4938 21.719 91.5354C20.4887 88.577 19.8532 85.4052 19.8488 82.2012C19.8514 78.996 20.4856 75.8228 21.7152 72.8628C22.9448 69.9029 24.7456 67.2143 27.0148 64.9506C29.2839 62.687 31.9769 60.8928 34.9398 59.6704C37.9028 58.4481 41.0775 57.8216 44.2827 57.8268H44.812C46.5455 40.9553 58.4283 27.2001 79.3952 27.2001ZM79.3952 37.1047C65.6929 37.1047 53.744 47.909 53.744 62.8353C53.744 65.1973 51.6334 67.0565 49.2184 67.0565H44.6532C36.3101 67.0565 29.5416 73.6794 29.5416 81.8505C29.5416 90.0216 36.3101 96.6643 44.6598 96.6643H114.131C122.474 96.6643 129.242 90.0348 129.242 81.8637C129.242 73.6926 122.474 67.0697 114.131 67.0697H109.565C107.15 67.0697 105.04 65.2172 105.04 62.8486C105.04 47.7304 93.0909 37.1113 79.3886 37.1113" fill="#2F4F2F"/>
</svg>
