<svg width="100" height="100" viewBox="0 0 100 100" fill="none" xmlns="http://www.w3.org/2000/svg">
<path d="M36.4583 79.1667C36.4583 78.3379 36.1291 77.543 35.543 76.957C34.957 76.3709 34.1621 76.0417 33.3333 76.0417C32.5045 76.0417 31.7097 76.3709 31.1236 76.957C30.5376 77.543 30.2083 78.3379 30.2083 79.1667H36.4583ZM53.125 66.6667C53.125 65.8379 52.7957 65.043 52.2097 64.457C51.6236 63.8709 50.8288 63.5417 50 63.5417C49.1712 63.5417 48.3763 63.8709 47.7903 64.457C47.2042 65.043 46.875 65.8379 46.875 66.6667H53.125ZM36.4583 83.3333V79.1667H30.2083V83.3333H36.4583ZM50 53.125H89.6833V46.875H50V53.125ZM51.9833 5.20834H48.0166V11.4583H51.9833V5.20834ZM10.3166 53.125H50V46.875H10.3166V53.125ZM5.20831 48.0167C5.20831 50.8375 7.49581 53.125 10.3166 53.125V46.875C10.9458 46.875 11.4583 47.3875 11.4583 48.0167H5.20831ZM94.7916 48.0167C94.7916 24.375 75.625 5.20834 51.9833 5.20834V11.4583C56.7842 11.4583 61.5381 12.404 65.9736 14.2412C70.409 16.0784 74.4392 18.7713 77.834 22.166C81.2287 25.5608 83.9216 29.5909 85.7588 34.0264C87.596 38.4619 88.5416 43.2158 88.5416 48.0167H94.7916ZM89.6833 53.125C92.5041 53.125 94.7916 50.8375 94.7916 48.0167H88.5416C88.5416 47.3875 89.0541 46.875 89.6833 46.875V53.125ZM41.6666 88.5417C38.7916 88.5417 36.4583 86.2083 36.4583 83.3333H30.2083C30.2083 86.3723 31.4155 89.2868 33.5644 91.4356C35.7132 93.5845 38.6277 94.7917 41.6666 94.7917V88.5417ZM48.0166 5.20834C24.375 5.20834 5.20831 24.375 5.20831 48.0167H11.4583C11.4583 38.3208 15.31 29.022 22.166 22.166C29.022 15.31 38.3208 11.4583 48.0166 11.4583V5.20834ZM46.875 83.3333C46.875 86.2083 44.5416 88.5417 41.6666 88.5417V94.7917C44.7056 94.7917 47.6201 93.5845 49.7689 91.4356C51.9178 89.2868 53.125 86.3723 53.125 83.3333H46.875ZM46.875 66.6667V83.3333H53.125V66.6667H46.875Z" fill="#2F4F2F"/>
<path d="M70.475 50C69.3125 38.7042 64.8083 8.33334 50 8.33334C35.1916 8.33334 30.6875 38.7042 29.525 50" stroke="#2F4F2F" stroke-width="1.5"/>
</svg>
