<svg width="54" height="54" viewBox="0 0 54 54" fill="none" xmlns="http://www.w3.org/2000/svg">
<path fill-rule="evenodd" clip-rule="evenodd" d="M27 0C12.0879 0 0 12.0879 0 27C0 41.9121 12.0879 54 27 54C41.9121 54 54 41.9121 54 27C54 12.0879 41.9121 0 27 0ZM17.55 20.25C17.55 19.009 17.7944 17.7802 18.2693 16.6336C18.7442 15.4871 19.4403 14.4454 20.3178 13.5678C21.1954 12.6903 22.2371 11.9942 23.3836 11.5193C24.5302 11.0444 25.759 10.8 27 10.8C28.241 10.8 29.4698 11.0444 30.6164 11.5193C31.7629 11.9942 32.8046 12.6903 33.6822 13.5678C34.5597 14.4454 35.2558 15.4871 35.7307 16.6336C36.2056 17.7802 36.45 19.009 36.45 20.25C36.45 22.7563 35.4544 25.1599 33.6822 26.9322C31.9099 28.7044 29.5063 29.7 27 29.7C24.4937 29.7 22.0901 28.7044 20.3178 26.9322C18.5456 25.1599 17.55 22.7563 17.55 20.25ZM43.8966 40.4568C41.8748 42.9984 39.3053 45.0508 36.3796 46.4608C33.454 47.8708 30.2477 48.6021 27 48.6C23.7523 48.6021 20.546 47.8708 17.6204 46.4608C14.6947 45.0508 12.1252 42.9984 10.1034 40.4568C14.4801 37.3167 20.4525 35.1 27 35.1C33.5475 35.1 39.5199 37.3167 43.8966 40.4568Z" fill="#2F4F2F"/>
</svg>
