<svg width="100" height="100" viewBox="0 0 100 100" fill="none" xmlns="http://www.w3.org/2000/svg">
<path d="M33.6542 28.6833C34.7139 25.2045 36.8639 22.1585 39.7869 19.9948C42.7098 17.8311 46.2509 16.6643 49.8875 16.6667C59.0584 16.6667 66.6667 24.0958 66.6667 33.3333C66.6667 37.7536 64.9108 41.9928 61.7852 45.1184C58.6596 48.244 54.4203 50 50 50H11.4584C10.6296 50 9.83472 49.6707 9.24867 49.0847C8.66261 48.4986 8.33337 47.7038 8.33337 46.875C8.33337 46.0462 8.66261 45.2513 9.24867 44.6653C9.83472 44.0792 10.6296 43.75 11.4584 43.75H50C52.7627 43.75 55.4122 42.6525 57.3657 40.699C59.3192 38.7455 60.4167 36.096 60.4167 33.3333C60.4167 27.6125 55.675 22.9167 49.8875 22.9167C45.1792 22.9167 40.9792 26.0125 39.6375 30.4792L39.45 31.1042C39.3443 31.5106 39.1578 31.8916 38.9015 32.2244C38.6453 32.5572 38.3246 32.8348 37.9586 33.0409C37.5926 33.2469 37.1889 33.377 36.7714 33.4235C36.354 33.47 35.9315 33.4319 35.5292 33.3114C35.1268 33.1909 34.7529 32.9906 34.4297 32.7223C34.1066 32.4541 33.8408 32.1234 33.6483 31.7502C33.4557 31.3769 33.3404 30.9687 33.3093 30.5498C33.2781 30.131 33.3316 29.7102 33.4667 29.3125L33.6542 28.6833ZM67.8709 50.0542C68.6802 47.6184 70.2341 45.4984 72.3132 43.9934C74.3924 42.4884 76.8917 41.6745 79.4584 41.6667C82.6962 41.6667 85.8015 42.9529 88.091 45.2424C90.3805 47.5319 91.6667 50.6371 91.6667 53.875V54.1667C91.6667 57.4819 90.3498 60.6613 88.0055 63.0055C85.6613 65.3497 82.4819 66.6667 79.1667 66.6667H73.75C74.6415 68.4136 75.0697 70.3602 74.9935 72.32C74.9174 74.2798 74.3394 76.1873 73.315 77.8598C72.2906 79.5323 70.854 80.9139 69.1428 81.8722C67.4316 82.8306 65.503 83.3337 63.5417 83.3333H62.9792C61.0039 83.3317 59.0678 82.7815 57.3868 81.7442C55.7057 80.7069 54.3457 79.2231 53.4584 77.4583C53.1114 76.7209 53.0661 75.8772 53.3323 75.1069C53.5985 74.3366 54.1551 73.7008 54.8834 73.3351C55.6116 72.9693 56.454 72.9025 57.2308 73.1489C58.0076 73.3953 58.6574 73.9355 59.0417 74.6542C59.7917 76.1417 61.3125 77.0833 62.9792 77.0833H63.5417C64.923 77.0833 66.2478 76.5346 67.2246 75.5578C68.2013 74.5811 68.75 73.2563 68.75 71.875C68.75 70.4937 68.2013 69.1689 67.2246 68.1921C66.2478 67.2154 64.923 66.6667 63.5417 66.6667H11.4584C10.6296 66.6667 9.83472 66.3374 9.24867 65.7514C8.66261 65.1653 8.33337 64.3705 8.33337 63.5417C8.33337 62.7129 8.66261 61.918 9.24867 61.332C9.83472 60.7459 10.6296 60.4167 11.4584 60.4167H79.1667C80.8243 60.4167 82.414 59.7582 83.5861 58.5861C84.7582 57.414 85.4167 55.8243 85.4167 54.1667V53.875C85.4167 50.5833 82.75 47.9167 79.4584 47.9167C76.9167 47.9167 74.6125 49.5833 73.8 52.0292C73.6704 52.4188 73.4652 52.779 73.1963 53.0893C72.9274 53.3996 72.6 53.6539 72.2329 53.8377C71.8657 54.0215 71.4659 54.1311 71.0563 54.1604C70.6468 54.1897 70.2355 54.138 69.8459 54.0083C69.4563 53.8786 69.0961 53.6735 68.7858 53.4046C68.4754 53.1357 68.2211 52.8083 68.0374 52.4411C67.8536 52.074 67.7439 51.6742 67.7146 51.2646C67.6854 50.8551 67.7412 50.4437 67.8709 50.0542Z" fill="#2F4F2F"/>
</svg>
