<?xml version="1.0" encoding="UTF-8" standalone="no"?>
<!-- Created with Inkscape (http://www.inkscape.org/) -->

<svg
   width="500"
   height="500"
   viewBox="0 0 132.29166 132.29167"
   version="1.1"
   id="svg1"
   xml:space="preserve"
   inkscape:version="1.4.2 (f4327f4, 2025-05-13)"
   xmlns:inkscape="http://www.inkscape.org/namespaces/inkscape"
   xmlns:sodipodi="http://sodipodi.sourceforge.net/DTD/sodipodi-0.dtd"
   xmlns="http://www.w3.org/2000/svg"
   xmlns:svg="http://www.w3.org/2000/svg"><sodipodi:namedview
     id="namedview1"
     pagecolor="#505050"
     bordercolor="#eeeeee"
     borderopacity="1"
     inkscape:showpageshadow="0"
     inkscape:pageopacity="0"
     inkscape:pagecheckerboard="0"
     inkscape:deskcolor="#505050"
     inkscape:document-units="mm"
     inkscape:zoom="0.68862935"
     inkscape:cx="396.43968"
     inkscape:cy="561.25984"
     inkscape:window-width="1920"
     inkscape:window-height="991"
     inkscape:window-x="-9"
     inkscape:window-y="-9"
     inkscape:window-maximized="1"
     inkscape:current-layer="layer1" /><defs
     id="defs1"><filter
       inkscape:menu="Fill and Transparency"
       inkscape:menu-tooltip="Create a semi transparent posterized image"
       style="color-interpolation-filters:sRGB"
       inkscape:label="Posterized Light Eraser"
       id="filter3"
       x="-0.00052031741"
       y="-0.00052031741"
       width="1.0010406"
       height="1.0010406"><feGaussianBlur
         stdDeviation="0.01"
         result="result1"
         in="SourceGraphic"
         id="feGaussianBlur1" /><feColorMatrix
         values="1 0 0 0 0 0 1 0 0 0 0 0 1 0 0 0 0 0 50 0 "
         result="fbSourceGraphic"
         in="result1"
         id="feColorMatrix1" /><feColorMatrix
         type="saturate"
         result="result8"
         values="1"
         id="feColorMatrix2" /><feComponentTransfer
         in="result8"
         result="result7"
         id="feComponentTransfer2"><feFuncR
           tableValues="0 0.2 0.4 0.6 0.8 1 1"
           type="discrete"
           id="feFuncR2" /><feFuncG
           tableValues="0 0.2 0.4 0.6 0.8 1 1"
           type="discrete"
           id="feFuncG2" /><feFuncB
           tableValues="0 0.2 0.4 0.6 0.8 1 1"
           type="discrete"
           id="feFuncB2" /></feComponentTransfer><feColorMatrix
         values="1 0 0 0 0 0 1 0 0 0 0 0 1 0 0 -0.21 -0.72 -0.07 1 0 "
         result="result2"
         in="result7"
         id="feColorMatrix3" /><feComposite
         in2="SourceGraphic"
         operator="in"
         result="result9"
         in="result2"
         id="feComposite3" /></filter><inkscape:path-effect
       effect="fill_between_many"
       method="originald"
       linkedpaths="#image1,0,1"
       id="path-effect1"
       is_visible="true"
       lpeversion="0"
       join="true"
       close="true"
       autoreverse="true" /></defs><g
     inkscape:label="Capa 1"
     inkscape:groupmode="layer"
     id="layer1"><g
       inkscape:label="Capa 1"
       id="layer1-8"
       transform="translate(0.51753761,3.1204659)"
       style="fill:#8cf800;fill-opacity:1"><path
         inkscape:original-d="M 0,0"
         inkscape:path-effect="#path-effect1"
         d="M 0,0"
         id="path1"
         style="fill:#8cf800;fill-opacity:1" /><path
         style="fill:#8cf800;stroke-width:1.31967;fill-opacity:1"
         d="m 61.384968,123.42953 c -7.451997,-0.42073 -13.222097,-1.55909 -19.553585,-3.85767 -10.429807,-3.78644 -18.468589,-9.95333 -23.314398,-17.88548 -0.582229,-0.95306 -1.2419,-1.66245 -1.465935,-1.57641 -1.599123,0.61401 -12.6697531,3.86103 -13.1641124,3.86103 -1.4767349,0 -2.2014722,-2.28754 -1.0798716,-3.40848 0.318988,-0.31879 3.2644537,-1.443346 6.5454794,-2.499012 C 12.63357,97.007843 15.373762,96.091405 15.441859,96.026963 15.50995,95.962452 15.18367,94.850658 14.71678,93.556148 14.249889,92.261637 13.535214,89.442682 13.128611,87.291823 12.610143,84.549198 12.232782,83.328375 11.865191,83.204454 11.576911,83.10727 9.1896912,82.524985 6.5602574,81.910486 3.8368411,81.274019 1.5192267,80.53179 1.1747358,80.18575 c -0.77441783,-0.777905 -0.77381533,-2.048849 0.00138,-2.827491 0.7939371,-0.797509 1.2156219,-0.77575 6.0222588,0.310836 2.2374832,0.505817 4.2489274,0.91965 4.4698744,0.91965 0.277317,0 0.471424,-1.273795 0.626793,-4.113188 0.422004,-7.712216 2.097181,-14.402177 5.41218,-21.613999 l 2.103096,-4.57532 -0.374436,-5.356868 c -0.518274,-7.414699 -0.512092,-19.796472 0.01152,-23.198033 0.871323,-5.659738 2.354282,-8.294737 4.966634,-8.824969 3.907697,-0.793143 9.395679,2.452422 18.486451,10.932797 l 4.051879,3.779828 2.825583,-0.90886 c 6.088698,-1.958451 8.068419,-2.22025 16.743956,-2.214161 8.73303,0.0056 11.193384,0.337935 16.623387,2.241898 l 2.621701,0.91926 2.992358,-2.87094 C 98.202895,13.725879 104.7867,9.7594692 108.52681,10.877324 c 2.51247,0.750919 3.98777,3.69385 4.7152,9.405808 0.43971,3.452656 0.42669,15.160896 -0.0249,22.432169 l -0.36602,5.892952 1.99519,4.230379 c 3.41009,7.230355 5.1526,14.054051 5.58308,21.863299 0.14695,2.665629 0.34031,3.886814 0.61546,3.886814 0.22064,0 2.23184,-0.413833 4.46933,-0.91965 5.09046,-1.15075 5.48294,-1.149791 6.17057,0.01502 0.44367,0.751572 0.47843,1.113406 0.17742,1.846681 -0.4698,1.144481 -0.859,1.299697 -6.40854,2.555752 -2.49406,0.564488 -4.68561,1.129895 -4.87009,1.256457 -0.1845,0.12652 -0.57741,1.550276 -0.87318,3.163813 -0.29575,1.613536 -0.98645,4.397135 -1.5349,6.18577 -0.54845,1.788635 -0.93198,3.324438 -0.85229,3.412891 0.0797,0.08843 2.80995,0.992837 6.0672,2.009712 3.25727,1.016889 6.18617,2.113949 6.50868,2.437909 1.15239,1.15757 0.48471,3.42913 -0.99951,3.40049 -0.49485,-0.01 -3.80696,-0.8993 -7.36023,-1.97724 l -6.46049,-1.95988 -1.12628,1.85632 c -1.71304,2.82344 -5.99466,7.59376 -8.89931,9.91508 -8.232405,6.57915 -20.838207,11.01622 -32.731443,11.52102 -2.369629,0.10052 -4.830397,0.22358 -5.46837,0.27334 -0.637974,0.0498 -3.098741,-0.019 -5.468372,-0.15276 z m 1.719674,-24.182306 c 0.737155,-0.417406 1.785129,-1.174414 2.328819,-1.682205 l 0.988551,-0.923279 0.939587,1.088561 c 1.143998,1.325377 3.99113,2.563399 5.883944,2.558519 3.589635,-0.01 7.395856,-3.849901 6.730689,-6.791581 -0.267944,-1.184939 -1.877032,-1.791235 -2.816168,-1.061102 -0.382593,0.297448 -0.69563,0.765031 -0.69563,1.039052 0,0.27402 -0.458865,0.926781 -1.019678,1.450575 -2.088859,1.950915 -5.326263,0.833491 -6.482261,-2.23742 -0.499085,-1.325821 -0.607986,-3.431689 -0.177468,-3.431689 0.151026,0 0.97754,-0.516814 1.836685,-1.148456 3.963623,-2.914081 3.695267,-7.678835 -0.495327,-8.794688 -2.047498,-0.545191 -7.725578,-0.314743 -8.910376,0.36164 -3.071915,1.753696 -2.4722,5.934342 1.244171,8.6732 l 1.793183,1.321525 -0.223226,1.540711 c -0.281709,1.944255 -0.905002,3.038461 -2.248904,3.947988 -2.025258,1.370674 -4.394427,0.7651 -5.419175,-1.385174 -0.768448,-1.612452 -1.909718,-2.166597 -2.93159,-1.423409 -1.034686,0.75249 -1.177144,1.749498 -0.492506,3.446829 0.646021,1.601594 2.370292,3.315151 4.05205,4.026862 1.478462,0.625677 4.493684,0.341427 6.11463,-0.576459 z M 45.205738,79.012713 c 6.803968,-3.872382 4.266119,-15.291545 -3.375949,-15.190218 -4.05615,0.05381 -7.123866,3.504806 -7.123866,8.014002 0,6.167599 5.575961,9.978556 10.499815,7.176216 z m 49.362279,-0.247507 c 2.052971,-1.335415 3.20054,-3.395387 3.373962,-6.056483 0.16875,-2.589453 -0.335571,-4.430142 -1.679109,-6.128614 -1.463223,-1.849768 -3.180886,-2.705712 -5.429677,-2.705712 -5.401318,0 -8.887112,5.725903 -6.718325,11.035764 1.047874,2.565525 2.432133,3.917721 4.941251,4.826818 1.377445,0.499074 3.947239,0.04602 5.511898,-0.971773 z M 32.211356,34.281543 c 1.088756,-0.90227 2.986807,-2.269064 4.217893,-3.037292 1.231084,-0.768242 2.241785,-1.545897 2.246004,-1.728142 0.013,-0.561444 -5.017795,-5.70865 -7.072699,-7.236361 -4.273417,-3.177077 -6.195213,-1.003417 -6.166066,6.974158 0.0096,2.647249 0.411357,7.103918 0.840638,9.32681 l 0.194706,1.008227 1.879983,-1.833445 c 1.033991,-1.00838 2.770784,-2.57167 3.859541,-3.473955 z m 74.710754,-0.689438 c 0.37061,-5.482734 -4e-5,-10.296552 -0.89578,-11.634261 -1.0271,-1.533829 -2.54557,-1.440204 -4.89204,0.301675 -2.213355,1.643067 -7.107534,6.638573 -7.105868,7.252989 6.01e-4,0.220437 0.383571,0.594214 0.851041,0.830627 1.653493,0.836215 6.308047,4.432102 8.761137,6.768416 2.96595,2.824767 2.84381,2.955764 3.28151,-3.519446 z"
         id="path2" /></g></g></svg>
