<svg width="159" height="160" viewBox="0 0 159 160" fill="none" xmlns="http://www.w3.org/2000/svg">
<path d="M86.221 133.054C87.9757 133.054 89.6586 133.751 90.8994 134.992C92.1402 136.232 92.8372 137.915 92.8372 139.67C92.8372 141.425 92.1402 143.108 90.8994 144.348C89.6586 145.589 87.9757 146.286 86.221 146.286C84.4662 146.286 82.7834 145.589 81.5426 144.348C80.3018 143.108 79.6047 141.425 79.6047 139.67C79.6047 137.915 80.3018 136.232 81.5426 134.992C82.7834 133.751 84.4662 133.054 86.221 133.054ZM63.064 126.438C64.8188 126.438 66.5016 127.135 67.7424 128.375C68.9832 129.616 69.6803 131.299 69.6803 133.054C69.6803 134.809 68.9832 136.491 67.7424 137.732C66.5016 138.973 64.8188 139.67 63.064 139.67C61.3093 139.67 59.6264 138.973 58.3856 137.732C57.1448 136.491 56.4478 134.809 56.4478 133.054C56.4478 131.299 57.1448 129.616 58.3856 128.375C59.6264 127.135 61.3093 126.438 63.064 126.438ZM109.378 126.438C111.133 126.438 112.816 127.135 114.056 128.375C115.297 129.616 115.994 131.299 115.994 133.054C115.994 134.809 115.297 136.491 114.056 137.732C112.816 138.973 111.133 139.67 109.378 139.67C107.623 139.67 105.94 138.973 104.7 137.732C103.459 136.491 102.762 134.809 102.762 133.054C102.762 131.299 103.459 129.616 104.7 128.375C105.94 127.135 107.623 126.438 109.378 126.438ZM86.2342 40.4856C107.195 40.4856 119.091 54.3599 120.817 71.1189H121.347C124.551 71.1146 127.724 71.7414 130.686 72.9638C133.648 74.1861 136.34 75.9799 138.608 78.2427C140.876 80.5056 142.677 83.1931 143.906 86.1519C145.136 89.1106 145.771 92.2826 145.774 95.4866C145.77 98.6901 145.134 101.861 143.904 104.819C142.675 107.777 140.874 110.464 138.606 112.726C136.337 114.988 133.646 116.782 130.685 118.003C127.723 119.225 124.55 119.852 121.347 119.848H51.1151C47.9116 119.852 44.7386 119.225 41.7773 118.003C38.816 116.782 36.1243 114.988 33.8561 112.726C31.5878 110.464 29.7873 107.777 28.5573 104.819C27.3274 101.861 26.6921 98.6901 26.6878 95.4866C26.6913 92.2826 27.3259 89.1106 28.5554 86.1519C29.785 83.1931 31.5854 80.5056 33.8537 78.2427C36.1221 75.9799 38.814 74.1861 41.7758 72.9638C44.7375 71.7414 47.911 71.1146 51.1151 71.1189H51.6444C53.3844 54.2474 65.2739 40.4856 86.2342 40.4856ZM86.2342 50.3901C72.5253 50.3901 60.5829 61.2011 60.5829 76.1274C60.5829 78.4894 58.4723 80.3486 56.0574 80.3486H51.4922C43.1425 80.3486 36.3806 86.9649 36.3806 95.1426C36.3806 103.314 43.1425 109.937 51.4856 109.937H120.976C129.319 109.937 136.081 103.32 136.081 95.1426C136.081 86.9715 129.319 80.3486 120.976 80.3486H116.411C113.996 80.3486 111.885 78.496 111.885 76.1274C111.885 61.0092 99.9365 50.3901 86.2342 50.3901ZM29.1027 67.9762C29.5628 69.0842 29.6059 70.3215 29.2239 71.4588C28.842 72.5962 28.0609 73.5566 27.0252 74.1624L26.4231 74.4601L20.2899 77.0008C19.1297 77.4736 17.8335 77.4902 16.6617 77.047C15.4898 76.6038 14.5289 75.7338 13.972 74.6115C13.415 73.4892 13.3032 72.1978 13.659 70.9965C14.0148 69.7952 14.8118 68.773 15.89 68.135L16.4921 67.8306L22.6254 65.29C23.2275 65.0405 23.8729 64.9122 24.5246 64.9122C25.1763 64.9122 25.8217 65.0406 26.4238 65.29C27.0259 65.5394 27.573 65.9051 28.0338 66.366C28.4946 66.8269 28.8534 67.374 29.1027 67.9762ZM72.0291 35.9997L70.8977 36.3835C67.4559 37.5878 64.2032 39.2765 61.2379 41.3986C58.052 40.3618 54.6224 40.3411 51.4242 41.3393C48.2259 42.3376 45.4171 44.3054 43.3865 46.9705C41.3559 49.6355 40.2041 52.8658 40.0904 56.2143C39.9768 59.5629 40.9069 62.8639 42.7521 65.6605C39.5247 66.5643 36.4687 67.9951 33.7077 69.8949C30.6752 64.6828 29.5425 58.5809 30.5023 52.6277C31.4621 46.6745 34.455 41.2378 38.9718 37.2428C43.4887 33.2478 49.2502 30.9413 55.2761 30.7159C61.302 30.4904 67.2198 32.36 72.0225 36.0064M19.6679 36.2115L20.3626 36.443L26.4893 38.9837C27.6383 39.468 28.5628 40.3672 29.079 41.5023C29.5951 42.6374 29.6649 43.9252 29.2746 45.1095C28.8843 46.2937 28.0625 47.2876 26.9726 47.8934C25.8827 48.4992 24.6047 48.6725 23.3929 48.3788L22.6916 48.1538L16.5649 45.6132C15.4128 45.1303 14.4853 44.2306 13.9675 43.0938C13.4497 41.957 13.3796 40.6667 13.7714 39.4806C14.1632 38.2944 14.9879 37.2996 16.0809 36.6949C17.174 36.0901 18.4549 35.9132 19.6679 36.2115ZM44.909 16.4619L45.2067 17.064L47.7474 23.1907C48.2271 24.3519 48.2485 25.6519 47.8072 26.8282C47.3659 28.0046 46.4948 28.9698 45.3697 29.529C44.2446 30.0882 42.9492 30.1998 41.745 29.8412C40.5409 29.4827 39.5175 28.6807 38.8816 27.5971L38.5772 26.9884L36.0366 20.8617C35.5637 19.7015 35.5472 18.4054 35.9904 17.2335C36.4335 16.0617 37.3036 15.1008 38.4259 14.5438C39.5481 13.9869 40.8395 13.8751 42.0408 14.2309C43.2421 14.5866 44.271 15.3836 44.909 16.4619ZM73.703 14.3513C74.8027 14.8061 75.7024 15.6409 76.238 16.7036C76.7736 17.7663 76.9094 18.9861 76.6208 20.1406L76.3892 20.8353L73.8552 26.9619C73.3779 28.1216 72.4793 29.0575 71.34 29.5815C70.2007 30.1056 68.9052 30.1788 67.7142 29.7865C66.5231 29.3942 65.5247 28.5655 64.9197 27.4671C64.3148 26.3686 64.1482 25.0818 64.4535 23.8655L64.685 23.1642L67.2191 17.0375C67.4684 16.4354 67.8338 15.8882 68.2946 15.4273C68.7554 14.9664 69.3025 14.6008 69.9046 14.3514C70.5067 14.1019 71.1521 13.9735 71.8038 13.9735C72.4555 13.9735 73.1009 14.1019 73.703 14.3513Z" fill="#99E600"/>
</svg>
