<svg width="100" height="100" viewBox="0 0 100 100" fill="none" xmlns="http://www.w3.org/2000/svg">
<path fill-rule="evenodd" clip-rule="evenodd" d="M51.9834 15.625C40.525 15.625 31.3 24.7917 31.3 36.0292C31.3 37.9542 31.5709 39.8167 32.0709 41.575C34.1417 42.175 36.0834 43.075 37.8334 44.2417C38.1933 44.4597 38.5056 44.7482 38.7513 45.0899C38.997 45.4316 39.1712 45.8194 39.2634 46.23C39.3556 46.6407 39.3639 47.0657 39.2878 47.4796C39.2117 47.8935 39.0527 48.2878 38.8205 48.6388C38.5883 48.9898 38.2876 49.2903 37.9364 49.5222C37.5852 49.7541 37.1908 49.9127 36.7768 49.9885C36.3628 50.0642 35.9378 50.0556 35.5272 49.9631C35.1166 49.8705 34.729 49.696 34.3875 49.45C31.958 47.8402 29.1061 46.9862 26.1917 46.9958C18.0209 46.9958 11.4584 53.5375 11.4584 61.5208C11.4584 67.9917 15.7667 73.5125 21.7584 75.375C22.162 75.4863 22.5391 75.6776 22.8674 75.9375C23.1956 76.1974 23.4683 76.5206 23.6692 76.8879C23.8701 77.2552 23.9952 77.6592 24.037 78.0758C24.0787 78.4924 24.0364 78.9131 23.9124 79.313C23.7884 79.7129 23.5853 80.0838 23.3152 80.4037C23.0451 80.7236 22.7134 80.9859 22.3399 81.1752C21.9665 81.3644 21.5588 81.4766 21.1411 81.5052C20.7234 81.5338 20.3042 81.4782 19.9084 81.3417C11.4084 78.7083 5.20837 70.85 5.20837 61.5208C5.20837 50.25 14.25 41.1333 25.475 40.7583C25.193 39.1977 25.0508 37.6151 25.05 36.0292C25.05 21.275 37.1417 9.375 51.9834 9.375C65.1417 9.375 76.1334 18.725 78.4625 31.1292C88.0459 35.2 94.7917 44.6208 94.7917 55.6375C94.7917 66.7208 87.9584 76.1958 78.2834 80.2208C77.9045 80.3784 77.4982 80.4598 77.0878 80.4604C76.6774 80.461 76.271 80.3808 75.8916 80.2243C75.5122 80.0677 75.1674 79.838 74.8768 79.5483C74.5862 79.2585 74.3555 78.9143 74.198 78.5354C73.8797 77.7702 73.8785 76.9098 74.1945 76.1437C74.5106 75.3775 75.1181 74.7683 75.8834 74.45C83.3417 71.35 88.5417 64.075 88.5417 55.6375C88.5417 46.7333 82.75 39.1292 74.6334 36.3542C72.4528 35.607 70.1634 35.2268 67.8584 35.2292C65.4292 35.2292 63.1084 35.6458 60.95 36.3958C60.1725 36.6497 59.3264 36.5886 58.5934 36.2256C57.8604 35.8627 57.299 35.2268 57.0295 34.4545C56.7601 33.6822 56.8042 32.8351 57.1524 32.095C57.5005 31.3549 58.125 30.7807 58.8917 30.4958C62.9323 29.0824 67.2503 28.6469 71.4917 29.225C70.0363 25.2251 67.3814 21.7721 63.8897 19.3379C60.3979 16.9037 56.2398 15.607 51.9834 15.625ZM50 58.8958C49.925 58.8958 49.8292 58.9208 49.725 59.0417C48.9383 59.9592 48.2328 60.9435 47.6167 61.9833C47.0167 63.0333 46.875 63.6583 46.875 63.8875C46.875 66.3167 48.575 67.7083 50 67.7083C51.425 67.7083 53.125 66.3167 53.125 63.8875C53.125 63.6583 52.9834 63.0333 52.3834 61.9833C51.7673 60.9435 51.0618 59.9592 50.275 59.0417C50.1709 58.9167 50.075 58.8917 50 58.8917M44.9334 55.025C45.5503 54.2791 46.3243 53.6786 47.2002 53.2664C48.076 52.8541 49.032 52.6404 50 52.6404C50.968 52.6404 51.9241 52.8541 52.7999 53.2664C53.6758 53.6786 54.4498 54.2791 55.0667 55.025C55.9834 56.1167 57.0042 57.4625 57.8125 58.8833C58.5792 60.225 59.375 62.0083 59.375 63.8833C59.375 69.1292 55.4792 73.9542 50 73.9542C44.5209 73.9542 40.625 69.1292 40.625 63.8833C40.625 62.0083 41.4209 60.225 42.1875 58.8833C42.9959 57.4625 44.0209 56.1167 44.9334 55.025ZM39.5834 79.725C39.5084 79.725 39.4125 79.7542 39.3084 79.875C38.5216 80.7925 37.8162 81.7768 37.2 82.8167C36.6 83.8667 36.4584 84.4917 36.4584 84.7208C36.4584 87.15 38.1584 88.5417 39.5834 88.5417C41.0084 88.5417 42.7084 87.15 42.7084 84.7208C42.7084 84.4917 42.5667 83.8667 41.9667 82.8167C41.3506 81.7768 40.6452 80.7925 39.8584 79.875C39.7542 79.75 39.6584 79.725 39.5834 79.725ZM34.5167 75.8625C35.1336 75.1166 35.9076 74.5161 36.7835 74.1039C37.6593 73.6916 38.6154 73.4779 39.5834 73.4779C40.5514 73.4779 41.5074 73.6916 42.3833 74.1039C43.2591 74.5161 44.0331 75.1166 44.65 75.8625C45.5667 76.9542 46.5875 78.3 47.3959 79.7208C48.1625 81.0625 48.9584 82.8458 48.9584 84.7208C48.9584 89.9667 45.0625 94.7917 39.5834 94.7917C34.1042 94.7917 30.2084 89.9667 30.2084 84.7208C30.2084 82.8458 31.0042 81.0625 31.7709 79.7208C32.5792 78.3 33.6042 76.9542 34.5167 75.8625ZM60.4167 79.725C60.3417 79.725 60.2459 79.7542 60.1417 79.875C59.3549 80.7925 58.6495 81.7768 58.0334 82.8167C57.4334 83.8667 57.2917 84.4917 57.2917 84.7208C57.2917 87.15 58.9917 88.5417 60.4167 88.5417C61.8417 88.5417 63.5417 87.15 63.5417 84.7208C63.5417 84.4917 63.4 83.8667 62.8 82.8167C62.1839 81.7768 61.4785 80.7925 60.6917 79.875C60.5875 79.75 60.4917 79.725 60.4167 79.725ZM55.35 75.8625C55.967 75.1166 56.741 74.5161 57.6168 74.1039C58.4927 73.6916 59.4487 73.4779 60.4167 73.4779C61.3847 73.4779 62.3408 73.6916 63.2166 74.1039C64.0924 74.5161 64.8664 75.1166 65.4834 75.8625C66.4 76.9542 67.4209 78.3 68.2292 79.7208C68.9959 81.0625 69.7917 82.8458 69.7917 84.7208C69.7917 89.9667 65.8959 94.7917 60.4167 94.7917C54.9375 94.7917 51.0417 89.9667 51.0417 84.7208C51.0417 82.8458 51.8375 81.0625 52.6042 79.7208C53.4125 78.3 54.4375 76.9542 55.35 75.8625Z" fill="white"/>
</svg>
