<svg width="159" height="159" viewBox="0 0 159 159" fill="none" xmlns="http://www.w3.org/2000/svg">
<path d="M79.3952 26.4717C100.362 26.4717 112.252 40.346 113.978 57.105H114.508C117.712 57.0998 120.887 57.7261 123.849 58.948C126.812 60.1699 129.504 61.9636 131.773 64.2265C134.042 66.4894 135.843 69.1773 137.073 72.1364C138.303 75.0956 138.938 78.2681 138.942 81.4727C138.937 84.6762 138.302 87.8475 137.072 90.8055C135.842 93.7635 134.042 96.4502 131.773 98.7123C129.505 100.974 126.813 102.768 123.852 103.99C120.891 105.212 117.718 105.838 114.514 105.834H110.664L100.197 123.268C99.5698 124.361 98.5502 125.175 97.3448 125.545C96.1395 125.914 94.8389 125.81 93.707 125.255C92.5752 124.7 91.697 123.735 91.2508 122.556C90.8045 121.378 90.8237 120.073 91.3045 118.908L91.6022 118.306L99.2043 105.834H85.0719L74.605 123.268C73.9781 124.361 72.9584 125.175 71.7531 125.545C70.5478 125.914 69.2472 125.81 68.1153 125.255C66.9835 124.7 66.1053 123.735 65.659 122.556C65.2128 121.378 65.232 120.073 65.7127 118.908L66.0105 118.306L73.6059 105.834H59.4604L49.0066 123.268C48.3869 124.375 47.3663 125.203 46.1547 125.581C44.9431 125.96 43.6327 125.859 42.493 125.301C41.3532 124.742 40.4708 123.768 40.0271 122.579C39.5835 121.39 39.6123 120.076 40.1078 118.908L40.4055 118.306L48.001 105.834H44.2826C41.0786 105.839 37.9049 105.213 34.9428 103.992C31.9808 102.77 29.2884 100.977 27.0194 98.7147C24.7504 96.4525 22.9493 93.7654 21.7189 90.807C20.4886 87.8486 19.8531 84.6768 19.8488 81.4727C19.8514 78.2676 20.4856 75.0943 21.7151 72.1344C22.9447 69.1745 24.7455 66.4859 27.0147 64.2222C29.2839 61.9586 31.9769 60.1643 34.9398 58.942C37.9027 57.7197 41.0775 57.0932 44.2826 57.0984H44.8119C46.5454 40.2269 58.4282 26.4717 79.3952 26.4717ZM79.3952 36.3763C65.6929 36.3763 53.7439 47.1806 53.7439 62.1069C53.7439 64.4689 51.6333 66.3281 49.2184 66.3281H44.6531C36.31 66.3281 29.5416 72.951 29.5416 81.1221C29.5416 89.2932 36.31 95.9359 44.6598 95.9359H114.131C122.474 95.9359 129.242 89.3064 129.242 81.1353C129.242 72.9642 122.474 66.3413 114.131 66.3413H109.565C107.15 66.3413 105.04 64.4888 105.04 62.1202C105.04 47.002 93.0908 36.3829 79.3885 36.3829" fill="white"/>
</svg>
