<svg width="54" height="54" viewBox="0 0 54 54" fill="none" xmlns="http://www.w3.org/2000/svg">
<g clip-path="url(#clip0_173_118)">
<path d="M26.352 7.7625C26.5479 7.50137 26.6639 7.18902 26.6858 6.86331C26.7078 6.5376 26.6348 6.21251 26.4757 5.92744C26.3166 5.64238 26.0783 5.40958 25.7895 5.25725C25.5008 5.10493 25.1741 5.03962 24.849 5.06925C12.6675 6.18075 5.86798 15.7613 5.12998 25.5555C4.39198 35.3678 9.71323 45.7493 21.8947 48.429C34.6882 51.2415 47.7067 42.0458 48.9307 28.9755C48.9612 28.6519 48.8976 28.3264 48.7475 28.0381C48.5974 27.7498 48.3673 27.511 48.0847 27.3503C47.8022 27.1897 47.4792 27.1141 47.1547 27.1326C46.8302 27.151 46.518 27.2628 46.2555 27.4545C39.8722 32.1098 32.5755 30.4155 27.9495 25.8255C23.328 21.2378 21.6495 14.0378 26.352 7.7625Z" fill="black"/>
</g>
<defs>
<clipPath id="clip0_173_118">
<rect width="54" height="54" fill="white"/>
</clipPath>
</defs>
</svg>
