<svg width="38" height="38" viewBox="0 0 38 38" fill="none" xmlns="http://www.w3.org/2000/svg">
<path d="M9.50008 11.0833H17.4167C17.8367 11.0833 18.2394 11.2501 18.5363 11.5471C18.8333 11.844 19.0001 12.2467 19.0001 12.6667C19.0001 13.0866 18.8333 13.4893 18.5363 13.7862C18.2394 14.0832 17.8367 14.25 17.4167 14.25H9.50008C9.08016 14.25 8.67743 14.0832 8.3805 13.7862C8.08356 13.4893 7.91675 13.0866 7.91675 12.6667C7.91675 12.2467 8.08356 11.844 8.3805 11.5471C8.67743 11.2501 9.08016 11.0833 9.50008 11.0833ZM20.5834 23.75H28.5001C28.92 23.75 29.3227 23.9168 29.6197 24.2137C29.9166 24.5107 30.0834 24.9134 30.0834 25.3333C30.0834 25.7533 29.9166 26.156 29.6197 26.4529C29.3227 26.7498 28.92 26.9167 28.5001 26.9167H20.5834C20.1635 26.9167 19.7608 26.7498 19.4638 26.4529C19.1669 26.156 19.0001 25.7533 19.0001 25.3333C19.0001 24.9134 19.1669 24.5107 19.4638 24.2137C19.7608 23.9168 20.1635 23.75 20.5834 23.75ZM9.50008 17.4167H28.5001C28.92 17.4167 29.3227 17.5835 29.6197 17.8804C29.9166 18.1773 30.0834 18.5801 30.0834 19C30.0834 19.4199 29.9166 19.8226 29.6197 20.1196C29.3227 20.4165 28.92 20.5833 28.5001 20.5833H9.50008C9.08016 20.5833 8.67743 20.4165 8.3805 20.1196C8.08356 19.8226 7.91675 19.4199 7.91675 19C7.91675 18.5801 8.08356 18.1773 8.3805 17.8804C8.67743 17.5835 9.08016 17.4167 9.50008 17.4167Z" fill="black"/>
</svg>
