<svg width="160" height="160" viewBox="0 0 160 160" fill="none" xmlns="http://www.w3.org/2000/svg">
<path d="M86.7158 47.0788C107.676 47.0788 119.572 60.9531 121.299 77.7121H121.828C125.032 77.7078 128.206 78.3347 131.168 79.557C134.129 80.7793 136.821 82.5731 139.09 84.836C141.358 87.0988 143.158 89.7863 144.388 92.7451C145.617 95.7038 146.252 98.8758 146.256 102.08C146.251 105.283 145.616 108.455 144.386 111.413C143.156 114.371 141.356 117.057 139.087 119.319C136.819 121.582 134.127 123.375 131.166 124.597C128.205 125.819 125.032 126.445 121.828 126.441H51.5966C48.3931 126.445 45.2201 125.819 42.2588 124.597C39.2975 123.375 36.6059 121.582 34.3376 119.319C32.0693 117.057 30.2688 114.371 29.0389 111.413C27.809 108.455 27.1737 105.283 27.1693 102.08C27.1728 98.8758 27.8075 95.7038 29.037 92.7451C30.2665 89.7863 32.0669 87.0988 34.3353 84.836C36.6037 82.5731 39.2956 80.7793 42.2573 79.557C45.219 78.3347 48.3926 77.7078 51.5966 77.7121H52.1259C53.866 60.8406 65.7554 47.0788 86.7158 47.0788ZM86.7158 56.9834C73.0069 56.9834 61.0645 67.7943 61.0645 82.7206C61.0645 85.0827 58.9539 86.9418 56.539 86.9418H51.9737C43.624 86.9418 36.8622 93.5581 36.8622 101.736C36.8622 109.907 43.624 116.53 51.9671 116.53H121.458C129.801 116.53 136.563 109.914 136.563 101.736C136.563 93.5647 129.801 86.9418 121.458 86.9418H116.893C114.471 86.9418 112.36 85.0893 112.36 82.7206C112.36 67.6025 100.418 56.9834 86.7158 56.9834ZM66.8537 27.1705C77.5522 27.1705 87.0334 32.5627 92.6572 40.8132C90.6849 40.585 88.7013 40.4679 86.7158 40.4625C84.1001 40.4625 81.5882 40.65 79.1798 41.0249C76.2516 38.9495 72.8465 37.6475 69.2806 37.2398C65.7147 36.8321 62.1035 37.3319 58.7824 38.6928C55.4613 40.0538 52.5378 42.2317 50.2834 45.0244C48.029 47.8172 46.5166 51.1342 45.8868 54.6677L45.4038 57.4068C45.1345 58.9397 44.3335 60.3286 43.1416 61.3293C41.9497 62.3301 40.4431 62.8786 38.8868 62.8785H35.6448C33.3135 62.876 31.0338 63.5647 29.0939 64.8576C27.1539 66.1505 25.6408 67.9895 24.7457 70.1421C23.8507 72.2947 23.6139 74.6644 24.0653 76.9516C24.5167 79.2387 25.6361 81.3407 27.2818 82.9919C25.1977 85.6384 23.5436 88.6488 22.4189 91.904C18.9015 89.2063 16.2939 85.4967 14.9466 81.2735C13.5993 77.0504 13.5768 72.5161 14.8821 68.2798C16.1873 64.0435 18.7578 60.3081 22.2482 57.5756C25.7387 54.843 29.9818 53.2441 34.4075 52.9938L36.1079 52.9541C37.3873 45.7292 41.1697 39.1855 46.7918 34.4708C52.4138 29.7561 59.5165 27.1715 66.8537 27.1705Z" fill="#99E600"/>
</svg>
